<?xml version="1.0" encoding="UTF-8"?>
<!DOCTYPE svg PUBLIC "-//W3C//DTD SVG 1.1//EN" "http://www.w3.org/Graphics/SVG/1.1/DTD/svg11.dtd">
<!-- Creator: CorelDRAW 2018 (64-Bit) -->
<svg xmlns="http://www.w3.org/2000/svg" xml:space="preserve" width="8.5in" height="11in" version="1.1" style="shape-rendering:geometricPrecision; text-rendering:geometricPrecision; image-rendering:optimizeQuality; fill-rule:evenodd; clip-rule:evenodd"
viewBox="0 0 8500 11000"
 xmlns:xlink="http://www.w3.org/1999/xlink">
 <defs>
  <style type="text/css">
   <![CDATA[
    .fil1 {fill:#FEFEFE}
    .fil0 {fill:#3E4095}
   ]]>
  </style>
    <clipPath id="id0">
     <path d="M1724.89 3388.26l165.27 0 0 205.65 -165.27 0 0 -205.65z"/>
    </clipPath>
    <clipPath id="id1">
     <path d="M1724.89 3418.74l137.95 0 0 140.34 -137.95 0 0 -140.34z"/>
    </clipPath>
 </defs>
 <g id="Layer_x0020_1">
  <metadata id="CorelCorpID_0Corel-Layer"/>
  <rect class="fil0" transform="matrix(0.671933 -2.06084E-09 0.00253264 0.691921 1635.44 3362.77)" width="453.13" height="354.17" rx="50.4" ry="50.4"/>
  <g id="_1736876339888">
   <g style="clip-path:url(#id0)">
    <image x="1724.89" y="3388.26" width="165.27" height="205.65" xlink:href="logo_Images\logo_ImgID1.png"/>
   </g>
  </g>
  <path class="fil1" d="M1736.08 3436.89c36.44,-4.63 15.66,-5.59 63.93,-4.69l0.8 -21.33c9.43,3.21 20.83,11.2 29.96,16.99l26.82 17.07 -56.9 37.82 -1.15 -16.33c-19.42,2.84 -43.49,19.02 -51.06,28.19 -5.01,6.08 -12.42,16.15 -16.57,25.13 -1.06,2.3 -8.73,28.78 -9.57,28.77 -0.39,14.25 -2.3,19.71 3.43,30.95 12.26,13.26 33.34,9.57 41.32,-5.77 9.26,-17.8 2.15,-25 18.73,-45.38 22.67,-27.85 59.41,-9.27 84.76,-43.19 24.05,-32.18 12.3,-68.35 -12.34,-86.49 -15.46,-11.38 -27.92,-12.22 -50.96,-12.42 -14.48,-0.13 -50.09,-2.49 -61.3,0.36 -14.96,8.66 -6.35,31.07 -9.91,50.31z"/>
  <g id="_1736876337840">
   <g style="clip-path:url(#id1)">
    <image x="1724.89" y="3418.74" width="137.95" height="140.34" xlink:href="logo_Images\logo_ImgID2.png"/>
   </g>
  </g>
  <path class="fil0" d="M1736.28 3436.43c-8.31,7.22 -10.57,5.33 -11.9,18.92 -0.98,10.07 -0.65,22.02 -0.8,32.28 -0.3,20.15 -0.67,40.29 -1.04,60.42 0.85,0.01 8.51,-26.47 9.57,-28.77 4.15,-8.98 11.56,-19.06 16.57,-25.13 7.56,-9.18 31.64,-25.36 51.06,-28.19l1.15 16.33 56.9 -37.81 -26.82 -17.07c-9.14,-5.78 -20.54,-13.78 -29.96,-16.99l-0.8 21.33c-48.27,-0.91 -27.49,0.06 -63.93,4.69z"/>
 </g>
</svg>
