<svg width="24" height="26" viewBox="0 0 24 26" fill="none" xmlns="http://www.w3.org/2000/svg">
<path d="M2.59997 0.755397C4.06801 -0.0203562 5.94002 -0.202123 7.72951 0.226327C8.60106 0.43406 9.34539 0.967999 9.79233 1.70318L11.336 4.24466C11.8862 5.15073 12.0451 6.2222 11.7797 7.23609C11.5142 8.24998 10.8449 9.12818 9.91095 9.68792L8.55292 10.5026C7.9908 10.8386 7.78452 11.353 7.91345 11.7604C8.37415 13.2178 9.39352 14.8342 10.5143 15.941C10.8478 16.2721 11.4598 16.35 12.058 16.0205L12.8092 15.6067C13.3021 15.3354 13.8473 15.1596 14.413 15.0893C14.9786 15.0191 15.5535 15.0559 16.1039 15.1976C16.6543 15.3393 17.1694 15.5831 17.619 15.9147C18.0686 16.2463 18.4438 16.6591 18.7226 17.129L20.1064 19.4579C20.5585 20.2206 20.6324 21.1311 20.3127 21.9507C19.675 23.5785 18.4459 24.8914 16.9348 25.5487C15.3998 26.2157 13.6034 26.1881 11.9772 25.164C9.40212 23.5444 6.29929 20.8179 3.4887 16.2705C0.642011 11.6614 -0.0748188 7.7388 0.00597495 4.81431C0.0575454 2.94309 1.10615 1.54413 2.59997 0.755397ZM18.843 0.847904C18.843 0.632692 18.7524 0.426294 18.5912 0.274116C18.43 0.121938 18.2114 0.0364458 17.9834 0.0364458C17.7555 0.0364458 17.5369 0.121938 17.3757 0.274116C17.2145 0.426294 17.1239 0.632692 17.1239 0.847904V10.5854C17.1239 10.8006 17.2145 11.007 17.3757 11.1592C17.5369 11.3114 17.7555 11.3969 17.9834 11.3969C18.2114 11.3969 18.43 11.3114 18.5912 11.1592C18.7524 11.007 18.843 10.8006 18.843 10.5854V0.847904ZM24 0.847904C24 0.632692 23.9094 0.426294 23.7483 0.274116C23.5871 0.121938 23.3684 0.0364458 23.1405 0.0364458C22.9125 0.0364458 22.6939 0.121938 22.5327 0.274116C22.3715 0.426294 22.281 0.632692 22.281 0.847904V10.5854C22.281 10.8006 22.3715 11.007 22.5327 11.1592C22.6939 11.3114 22.9125 11.3969 23.1405 11.3969C23.3684 11.3969 23.5871 11.3114 23.7483 11.1592C23.9094 11.007 24 10.8006 24 10.5854V0.847904Z" fill="white"/>
</svg>
