<svg width="79" height="75" viewBox="0 0 79 75" fill="none" xmlns="http://www.w3.org/2000/svg">
<g filter="url(#filter0_d_134_4842)">
<ellipse cx="39.5" cy="36.5" rx="31.5" ry="29.5" fill="#FF0000"/>
</g>
<path d="M50 51H49.83C30.18 49.87 27.39 33.29 27 28.23C26.9686 27.8366 27.0151 27.4408 27.1369 27.0654C27.2587 26.69 27.4533 26.3423 27.7097 26.0423C27.9661 25.7422 28.2792 25.4957 28.631 25.3168C28.9828 25.138 29.3665 25.0303 29.76 25H35.27C35.6706 24.9996 36.062 25.1195 36.3936 25.3442C36.7253 25.5688 36.9818 25.8879 37.13 26.26L38.65 30C38.7964 30.3635 38.8327 30.7621 38.7544 31.1461C38.6762 31.5301 38.4869 31.8827 38.21 32.16L36.08 34.31C36.4127 36.2007 37.3182 37.9437 38.6739 39.303C40.0296 40.6622 41.7701 41.5723 43.66 41.91L45.83 39.76C46.1115 39.4862 46.4674 39.3013 46.8533 39.2283C47.2392 39.1554 47.638 39.1977 48 39.35L51.77 40.86C52.1365 41.0129 52.4492 41.2714 52.6683 41.6027C52.8873 41.9339 53.0028 42.3229 53 42.72V48C53 48.7956 52.6839 49.5587 52.1213 50.1213C51.5587 50.6839 50.7957 51 50 51ZM30 27C29.7348 27 29.4804 27.1054 29.2929 27.2929C29.1054 27.4804 29 27.7348 29 28V28.08C29.46 34 32.41 48 49.94 49C50.0714 49.0081 50.2031 48.9902 50.3275 48.9473C50.4519 48.9045 50.5667 48.8374 50.6652 48.7501C50.7637 48.6628 50.8439 48.5568 50.9014 48.4384C50.9588 48.32 50.9924 48.1914 51 48.06V42.72L47.23 41.21L44.36 44.06L43.88 44C35.18 42.91 34 34.21 34 34.12L33.94 33.64L36.78 30.77L35.28 27H30Z" fill="white"/>
<defs>
<filter id="filter0_d_134_4842" x="0" y="0" width="79" height="75" filterUnits="userSpaceOnUse" color-interpolation-filters="sRGB">
<feFlood flood-opacity="0" result="BackgroundImageFix"/>
<feColorMatrix in="SourceAlpha" type="matrix" values="0 0 0 0 0 0 0 0 0 0 0 0 0 0 0 0 0 0 127 0" result="hardAlpha"/>
<feMorphology radius="2" operator="dilate" in="SourceAlpha" result="effect1_dropShadow_134_4842"/>
<feOffset dy="1"/>
<feGaussianBlur stdDeviation="3"/>
<feComposite in2="hardAlpha" operator="out"/>
<feColorMatrix type="matrix" values="0 0 0 0 0.835294 0 0 0 0 0.168627 0 0 0 0 0.117647 0 0 0 1 0"/>
<feBlend mode="normal" in2="BackgroundImageFix" result="effect1_dropShadow_134_4842"/>
<feBlend mode="normal" in="SourceGraphic" in2="effect1_dropShadow_134_4842" result="shape"/>
</filter>
</defs>
</svg>
