<svg width="26" height="26" viewBox="0 0 26 26" fill="none" xmlns="http://www.w3.org/2000/svg">
<path d="M19.2292 16.1958L17.6583 14.625C17.9111 14.2097 18.1007 13.7764 18.2271 13.325C18.3535 12.8736 18.4167 12.4042 18.4167 11.9167H20.5833C20.5833 12.7111 20.466 13.4648 20.2312 14.1776C19.9965 14.8904 19.6625 15.5632 19.2292 16.1958ZM16.0333 12.9458L9.75 6.66251V5.41667C9.75 4.51389 10.066 3.74653 10.6979 3.11459C11.3299 2.48264 12.0972 2.16667 13 2.16667C13.9028 2.16667 14.6701 2.48264 15.3021 3.11459C15.934 3.74653 16.25 4.51389 16.25 5.41667V11.9167C16.25 12.1153 16.2272 12.2958 16.1817 12.4583C16.1362 12.6208 16.0868 12.7833 16.0333 12.9458ZM11.9167 22.75V19.3917C10.0389 19.1389 8.48611 18.304 7.25833 16.887C6.03055 15.47 5.41666 13.8132 5.41666 11.9167H7.58333C7.58333 13.4153 8.11163 14.6929 9.16825 15.7495C10.2249 16.8061 11.5021 17.3341 13 17.3333C13.6139 17.3333 14.1964 17.2384 14.7474 17.0484C15.2985 16.8585 15.7993 16.5923 16.25 16.25L17.7937 17.7938C17.2701 18.209 16.6967 18.5568 16.0734 18.837C15.4501 19.1172 14.7868 19.3021 14.0833 19.3917V22.75H11.9167ZM21.45 24.4833L1.51666 4.55L3.03333 3.03334L22.9667 22.9667L21.45 24.4833Z" fill="white"/>
</svg>
