<svg width="26" height="26" viewBox="0 0 26 26" fill="none" xmlns="http://www.w3.org/2000/svg">
<path d="M13.5855 3.47695C14.196 2.92933 15.1667 3.36212 15.1667 4.18166V21.8183C15.1667 22.6384 14.196 23.0712 13.5855 22.5236L9.14063 18.5337C8.66854 18.1097 8.05644 17.8751 7.42192 17.875H4.875C4.12079 17.875 3.39747 17.5754 2.86417 17.0421C2.33086 16.5088 2.03125 15.7855 2.03125 15.0312V10.9687C2.03125 9.39791 3.30417 8.12499 4.875 8.12499H7.42192C8.05644 8.12488 8.66854 7.8903 9.14063 7.46633L13.5855 3.47695ZM19.6831 4.54783C19.8058 4.41689 19.9755 4.34002 20.1549 4.33413C20.3342 4.32824 20.5086 4.3938 20.6397 4.51641L20.6408 4.51749L20.6424 4.51858L20.6456 4.52183L20.6559 4.53158L20.6884 4.56299C20.8563 4.7345 21.0163 4.91362 21.1678 5.09979C21.5791 5.60914 21.9444 6.15404 22.2593 6.72804C23.049 8.15695 23.8333 10.2662 23.8333 13C23.8333 15.7338 23.049 17.8425 22.2593 19.2725C21.9441 19.8461 21.5787 20.3907 21.1672 20.8997C21.0157 21.086 20.8558 21.2653 20.6879 21.437C20.6771 21.4475 20.6663 21.458 20.6554 21.4684L20.6456 21.4782L20.6424 21.4814L20.6408 21.4825C20.6408 21.4825 20.9983 21.125 20.6397 21.483C20.508 21.6015 20.3352 21.6637 20.1583 21.6563C19.9814 21.6488 19.8144 21.5724 19.6931 21.4433C19.5719 21.3142 19.5061 21.1427 19.5098 20.9657C19.5135 20.7886 19.5864 20.6201 19.7129 20.4961L19.714 20.4956L19.7156 20.494L19.7329 20.4766C19.7599 20.45 19.7865 20.4229 19.8125 20.3954C19.8835 20.3195 19.9891 20.2025 20.1175 20.0444C20.478 19.5978 20.7981 19.1202 21.0741 18.6171C21.7739 17.3517 22.4792 15.4662 22.4792 13C22.4792 10.5338 21.7739 8.64824 21.0741 7.38291C20.7981 6.8796 20.478 6.40178 20.1175 5.95508C19.9958 5.80538 19.8674 5.66116 19.7329 5.52283C19.7272 5.51701 19.7214 5.51123 19.7156 5.50549L19.714 5.50387L19.7129 5.50279C19.5825 5.37988 19.5061 5.21029 19.5006 5.03119C19.495 4.85209 19.5606 4.67862 19.6831 4.54783ZM17.5143 7.79999C17.5747 7.73478 17.6475 7.68212 17.7283 7.64503C17.8092 7.60794 17.8965 7.58714 17.9854 7.58382C18.0743 7.5805 18.163 7.59472 18.2463 7.62568C18.3297 7.65664 18.4062 7.70372 18.4714 7.76424L18.506 7.79783L18.4714 7.76533L18.473 7.76641L18.4757 7.76912L18.4833 7.77562L18.506 7.79783C18.6175 7.90948 18.7241 8.02587 18.8256 8.14666C19.0233 8.38283 19.2839 8.72733 19.5433 9.17204C20.2241 10.3329 20.583 11.6543 20.5833 13C20.5833 14.6375 20.0617 15.9391 19.5433 16.8285C19.2833 17.2727 19.0233 17.6177 18.8251 17.8539C18.7236 17.9747 18.617 18.091 18.5055 18.2027L18.4952 18.213C18.4913 18.2168 18.4873 18.2206 18.4833 18.2244L18.4757 18.2314L18.473 18.2341L18.4714 18.2357C18.3395 18.3551 18.1661 18.4178 17.9884 18.4103C17.8107 18.4027 17.6431 18.3256 17.5219 18.1956C17.4006 18.0656 17.3353 17.893 17.3402 17.7153C17.345 17.5375 17.4196 17.3688 17.5478 17.2456L17.5489 17.2445L17.5576 17.2358C17.5668 17.2266 17.5825 17.2115 17.6036 17.1892C17.6673 17.1225 17.7287 17.0537 17.7878 16.9829C17.9449 16.7955 18.1588 16.5138 18.3733 16.146C18.9334 15.1921 19.2289 14.1061 19.2292 13C19.2292 11.6583 18.8029 10.5901 18.3733 9.85454C18.1588 9.4862 17.9454 9.20454 17.7883 9.01766C17.7149 8.93022 17.6379 8.84582 17.5576 8.7647L17.5484 8.75549L17.5489 8.75604C17.4177 8.63377 17.3403 8.46443 17.3338 8.28519C17.3273 8.10594 17.3922 7.93145 17.5143 7.79999Z" fill="white"/>
</svg>
